<svg width="29" height="29" viewBox="0 0 29 29" fill="none" xmlns="http://www.w3.org/2000/svg">
<circle cx="14.5" cy="14.5" r="14.5" fill="url(#paint0_linear_1_1964)"/>
<path d="M22.0068 13.3277C22.0977 13.0027 21.9078 12.6656 21.5828 12.5747L20.5308 12.2807C20.4798 12.1437 20.4238 12.0087 20.3638 11.8747L20.9068 10.9277C20.9728 10.8131 20.9998 10.6801 20.9838 10.5487C20.9432 10.2138 20.6387 9.97517 20.3038 10.0157L19.2248 10.1497C19.1248 10.0407 19.0168 9.93673 18.9078 9.83373L19.0478 8.75973C19.0535 8.65401 19.0329 8.54852 18.9878 8.45273C18.8365 8.13684 18.4583 8.00272 18.1418 8.15273L17.1978 8.68573C17.0858 8.63373 16.9738 8.58573 16.8598 8.53773C16.8351 8.51779 16.8086 8.50005 16.7808 8.48473L16.5098 7.46473C16.4749 7.33693 16.3999 7.22372 16.2958 7.14173C16.0297 6.93423 15.646 6.9812 15.4378 7.24673L14.7648 8.10273C14.6178 8.09673 14.4708 8.09573 14.3238 8.10273L13.6578 7.23873C13.5777 7.13405 13.4657 7.05824 13.3388 7.02273C13.0138 6.93184 12.6766 7.12169 12.5858 7.44673L12.2928 8.49773C12.1578 8.54773 12.0258 8.60273 11.8928 8.66073L10.9378 8.11473C10.8231 8.04863 10.6901 8.02161 10.5588 8.03773C10.398 8.05723 10.2516 8.13986 10.1518 8.26742C10.052 8.39498 10.007 8.55698 10.0268 8.71773L10.1618 9.80473C10.0538 9.90473 9.95078 10.0047 9.84978 10.1167L8.76679 9.96973C8.63621 9.95248 8.50356 9.97809 8.38879 10.0427C8.24731 10.1222 8.14323 10.2546 8.09952 10.4109C8.05581 10.5672 8.07606 10.7344 8.1558 10.8757L8.69179 11.8277C8.63079 11.9617 8.57279 12.0957 8.52079 12.2327L7.46679 12.5127C7.33908 12.5467 7.22599 12.6215 7.14479 12.7257C7.04407 12.8527 6.998 13.0145 7.01676 13.1755C7.03552 13.3364 7.11757 13.4833 7.24479 13.5837L8.10579 14.2607C8.09979 14.4067 8.09879 14.5507 8.10579 14.6957L7.23479 15.3667C7.18506 15.4059 7.14156 15.4525 7.10579 15.5047C6.91598 15.7839 6.98853 16.1641 7.26779 16.3537C7.32126 16.39 7.38041 16.417 7.44279 16.4337L8.50079 16.7337C8.55079 16.8687 8.60579 17.0017 8.66479 17.1337L8.12079 18.0847C7.96069 18.3622 8.04286 18.7162 8.30879 18.8947C8.42974 18.9784 8.57647 19.0163 8.72279 19.0017L9.8098 18.8667C9.90979 18.9717 10.0098 19.0727 10.1158 19.1717L9.9748 20.2557C9.94489 20.4853 10.0471 20.712 10.2388 20.8417C10.4307 20.9686 10.6776 20.9771 10.8778 20.8637L11.8248 20.3287C11.9618 20.3927 12.0998 20.4517 12.2408 20.5047L12.5198 21.5547C12.5577 21.6969 12.6458 21.8205 12.7678 21.9027C12.8361 21.9455 12.9122 21.974 12.9918 21.9867C13.2176 22.0315 13.4495 21.9457 13.5918 21.7647L14.2588 20.9167C14.4058 20.9217 14.5528 20.9217 14.6998 20.9167L15.3648 21.7797C15.404 21.8295 15.4505 21.873 15.5028 21.9087C15.5567 21.9445 15.6157 21.9718 15.6778 21.9897C16.0017 22.0815 16.3387 21.8935 16.4308 21.5697L16.7238 20.5227C16.8648 20.4707 17.0048 20.4147 17.1418 20.3527L18.0928 20.8977C18.2075 20.9637 18.3405 20.9907 18.4718 20.9747C18.8067 20.9341 19.0453 20.6297 19.0048 20.2947L18.8728 19.2367C18.8891 19.2136 18.9041 19.1895 18.9178 19.1647C19.0088 19.0787 19.0948 18.9887 19.1808 18.8977L20.2558 19.0377C20.3868 19.0547 20.5198 19.0287 20.6348 18.9637C20.776 18.8843 20.8799 18.752 20.9234 18.5959C20.9669 18.4398 20.9466 18.2728 20.8668 18.1317L20.3338 17.1867C20.3958 17.0517 20.4548 16.9157 20.5068 16.7787L21.5458 16.5017C21.6735 16.4678 21.7866 16.393 21.8678 16.2887C22.077 16.0242 22.0322 15.6401 21.7678 15.4307L20.9198 14.7637C20.9258 14.6147 20.9278 14.4637 20.9198 14.3177L21.7848 13.6507C21.8926 13.5707 21.9707 13.457 22.0068 13.3277ZM15.4558 19.6047C14.8528 19.7138 14.2353 19.7155 13.6318 19.6097C13.5148 19.5897 13.3998 19.5637 13.2848 19.5357C12.8087 19.4176 12.3518 19.2324 11.9278 18.9857C11.7116 18.8615 11.5048 18.7218 11.3088 18.5677C10.9109 18.2622 10.5598 17.9 10.2668 17.4927C10.2388 17.4527 10.2058 17.4157 10.1788 17.3747C10.1248 17.2927 10.0788 17.2057 10.0288 17.1207C9.84261 16.7995 9.69141 16.4592 9.57779 16.1057L14.2248 15.1787L17.3948 18.8267C16.8377 19.1957 16.2146 19.4538 15.5598 19.5867L15.4558 19.6047ZM10.4558 11.2707C10.7532 10.8934 11.1015 10.5593 11.4908 10.2777C11.5418 10.2407 11.5908 10.1987 11.6418 10.1627C11.6928 10.1267 11.7678 10.0897 11.8298 10.0517C12.2574 9.79766 12.7195 9.60669 13.2018 9.48473C13.4027 9.43112 13.6067 9.39037 13.8128 9.36273C14.3048 9.2954 14.8039 9.2991 15.2948 9.37373C15.3778 9.38673 15.4628 9.39473 15.5458 9.41173L15.5698 9.41773L14.0178 13.9177L9.33679 14.8507C9.31352 14.5129 9.32357 14.1736 9.3668 13.8377C9.38379 13.7157 9.39779 13.5927 9.42179 13.4707C9.4458 13.3487 9.4818 13.2327 9.51479 13.1147C9.62867 12.7096 9.79119 12.3198 9.99879 11.9537C10.1336 11.7154 10.2874 11.4883 10.4588 11.2747L10.4558 11.2707ZM18.6038 17.6707C18.5328 17.7627 18.4588 17.8527 18.3818 17.9397L15.2668 14.3607L16.8138 9.86973C16.9068 9.91673 16.9988 9.96973 17.0898 10.0187C17.3047 10.1423 17.5106 10.281 17.7058 10.4337C18.0532 10.706 18.3644 11.0215 18.6318 11.3727C18.7664 11.5486 18.889 11.7334 18.9988 11.9257C19.2705 12.3889 19.4682 12.8916 19.5848 13.4157C19.5918 13.4487 19.6028 13.4817 19.6098 13.5157C19.6168 13.5497 19.6178 13.5817 19.6228 13.6157C19.7305 14.2274 19.7264 14.8535 19.6108 15.4637C19.5948 15.5507 19.5738 15.6357 19.5538 15.7207C19.432 16.2084 19.2403 16.6759 18.9848 17.1087C18.8717 17.3054 18.7454 17.4942 18.6068 17.6737L18.6038 17.6707Z" fill="white"/>
<defs>
<linearGradient id="paint0_linear_1_1964" x1="7.25" y1="7.25" x2="7.25" y2="7.25" gradientUnits="userSpaceOnUse">
<stop stop-color="#5B34FF"/>
<stop offset="1" stop-color="#FF5303"/>
</linearGradient>
</defs>
</svg>
