<svg width="117" height="90" viewBox="0 0 117 90" fill="none" xmlns="http://www.w3.org/2000/svg">
    <g filter="url(#ajyonr5uqa)">
        <path d="M74.622 10.002c4.356-.11 6.533 5.117 3.43 8.166L55.84 40.38c-1.361 1.36-3.648 1.36-5.009 0l-11.27-11.324c-4.681-4.464 2.233-11.378 6.697-6.696l6.261 6.26c.436.436 1.198.436 1.688 0l17.149-17.149c.87-.925 2.014-1.415 3.266-1.47z" fill="#fff"/>
    </g>
    <g filter="url(#xu07yqiklb)">
        <path d="M74.622 10.002c4.356-.11 6.533 5.117 3.43 8.166L55.84 40.38c-1.361 1.36-3.648 1.36-5.009 0l-11.27-11.324c-4.681-4.464 2.233-11.378 6.697-6.696l6.261 6.26c.436.436 1.198.436 1.688 0l17.149-17.149c.87-.925 2.014-1.415 3.266-1.47z" fill="url(#su127jygzc)"/>
    </g>
    <g filter="url(#6g5md1360d)">
        <path d="M11.2 81.2c-1.417 0-2.688-.296-3.813-.888-1.125-.591-2.004-1.412-2.637-2.462-.633-1.05-.95-2.242-.95-3.575 0-1.333.317-2.525.95-3.575.633-1.05 1.512-1.87 2.637-2.463 1.125-.591 2.396-.887 3.813-.887 1.417 0 2.683.296 3.8.887a6.618 6.618 0 0 1 2.625 2.463c.633 1.05.95 2.242.95 3.575 0 1.333-.317 2.525-.95 3.575A6.618 6.618 0 0 1 15 80.313c-1.117.591-2.383.887-3.8.887zm0-3.2c1 0 1.82-.338 2.463-1.013.641-.674.962-1.579.962-2.712 0-1.133-.32-2.038-.963-2.713-.641-.674-1.462-1.012-2.462-1.012-1 0-1.825.338-2.475 1.013-.65.674-.975 1.579-.975 2.712 0 1.133.325 2.037.975 2.712C9.375 77.662 10.2 78 11.2 78zm13.325-8.675c.467-.65 1.096-1.142 1.888-1.475.791-.333 1.704-.5 2.737-.5v3.6a14.02 14.02 0 0 0-.875-.05c-1.117 0-1.992.313-2.625.938s-.95 1.562-.95 2.812V81h-3.9V67.55h3.725v1.775zM44.85 67.55v11.2c0 2.467-.642 4.3-1.925 5.5-1.283 1.2-3.158 1.8-5.625 1.8-1.3 0-2.533-.158-3.7-.475-1.167-.317-2.133-.775-2.9-1.375l1.55-2.8c.567.467 1.283.837 2.15 1.112a8.555 8.555 0 0 0 2.6.413c1.35 0 2.346-.304 2.987-.912.642-.609.963-1.53.963-2.763v-.575c-1.017 1.117-2.433 1.675-4.25 1.675-1.233 0-2.363-.27-3.388-.813a6.193 6.193 0 0 1-2.437-2.287c-.6-.983-.9-2.117-.9-3.4s.3-2.417.9-3.4a6.191 6.191 0 0 1 2.438-2.288c1.024-.541 2.154-.812 3.387-.812 1.95 0 3.433.642 4.45 1.925V67.55h3.7zm-7.375 9.6c1.033 0 1.88-.304 2.538-.913.658-.608.987-1.404.987-2.387 0-.983-.33-1.78-.987-2.387-.659-.609-1.505-.913-2.538-.913s-1.883.304-2.55.913c-.667.608-1 1.404-1 2.387 0 .983.333 1.78 1 2.388.667.608 1.517.912 2.55.912zm16.05-9.8c2.083 0 3.683.496 4.8 1.488 1.117.991 1.675 2.487 1.675 4.487V81h-3.65v-1.675c-.733 1.25-2.1 1.875-4.1 1.875-1.033 0-1.93-.175-2.688-.525-.758-.35-1.337-.833-1.737-1.45-.4-.617-.6-1.317-.6-2.1 0-1.25.47-2.233 1.413-2.95.941-.717 2.395-1.075 4.362-1.075h3.1c0-.85-.258-1.504-.775-1.962-.517-.459-1.292-.688-2.325-.688-.717 0-1.42.112-2.112.337-.692.225-1.28.53-1.763.913l-1.4-2.725c.733-.517 1.612-.917 2.637-1.2a11.812 11.812 0 0 1 3.163-.425zm-.3 11.225c.667 0 1.258-.154 1.775-.463.517-.308.883-.762 1.1-1.362v-1.375h-2.675c-1.6 0-2.4.525-2.4 1.575 0 .5.196.896.587 1.188.392.291.93.437 1.613.437zm18.1-11.225c1.667 0 3.013.5 4.037 1.5 1.026 1 1.538 2.483 1.538 4.45V81H73v-7.1c0-1.067-.233-1.863-.7-2.388-.467-.525-1.142-.787-2.025-.787-.983 0-1.767.304-2.35.913-.583.608-.875 1.512-.875 2.712V81h-3.9V67.55h3.725v1.575a5.171 5.171 0 0 1 1.925-1.313c.767-.308 1.608-.462 2.525-.462zm8.725.2h3.9V81h-3.9V67.55zM82 65.675c-.717 0-1.3-.208-1.75-.625a2.027 2.027 0 0 1-.675-1.55c0-.617.225-1.133.675-1.55.45-.417 1.033-.625 1.75-.625.717 0 1.3.2 1.75.6.45.4.675.9.675 1.5 0 .65-.225 1.188-.675 1.612-.45.425-1.033.638-1.75.638zM98.275 78v3h-12v-2.35l6.85-8.1H86.45v-3h11.6v2.35L91.2 78h7.075zm15.125-3.675c0 .05-.025.4-.075 1.05H103.15a3.17 3.17 0 0 0 1.3 1.975c.683.483 1.533.725 2.55.725.7 0 1.321-.104 1.862-.313a4.514 4.514 0 0 0 1.513-.987l2.075 2.25c-1.267 1.45-3.117 2.175-5.55 2.175-1.517 0-2.858-.296-4.025-.888-1.167-.591-2.067-1.412-2.7-2.462-.633-1.05-.95-2.242-.95-3.575 0-1.317.313-2.504.937-3.563a6.572 6.572 0 0 1 2.575-2.475c1.092-.591 2.313-.887 3.663-.887 1.317 0 2.508.283 3.575.85a6.198 6.198 0 0 1 2.512 2.438c.609 1.058.913 2.287.913 3.687zm-6.975-4.025c-.883 0-1.625.25-2.225.75-.6.5-.967 1.183-1.1 2.05h6.625c-.133-.85-.5-1.53-1.1-2.037-.6-.509-1.333-.763-2.2-.763z" fill="#27354C"/>
    </g>
    <defs>
        <filter id="ajyonr5uqa" x="28" y="0" width="61.511" height="51.401" filterUnits="userSpaceOnUse" color-interpolation-filters="sRGB">
            <feFlood flood-opacity="0" result="BackgroundImageFix"/>
            <feColorMatrix in="SourceAlpha" values="0 0 0 0 0 0 0 0 0 0 0 0 0 0 0 0 0 0 127 0" result="hardAlpha"/>
            <feOffset/>
            <feGaussianBlur stdDeviation="5"/>
            <feComposite in2="hardAlpha" operator="out"/>
            <feColorMatrix values="0 0 0 0 0.992157 0 0 0 0 0.576471 0 0 0 0 0.443137 0 0 0 0.521569 0"/>
            <feBlend in2="BackgroundImageFix" result="effect1_dropShadow_1_841"/>
            <feBlend in="SourceGraphic" in2="effect1_dropShadow_1_841" result="shape"/>
        </filter>
        <filter id="xu07yqiklb" x="35" y="7" width="47.511" height="37.401" filterUnits="userSpaceOnUse" color-interpolation-filters="sRGB">
            <feFlood flood-opacity="0" result="BackgroundImageFix"/>
            <feColorMatrix in="SourceAlpha" values="0 0 0 0 0 0 0 0 0 0 0 0 0 0 0 0 0 0 127 0" result="hardAlpha"/>
            <feOffset/>
            <feGaussianBlur stdDeviation="1.5"/>
            <feComposite in2="hardAlpha" operator="out"/>
            <feColorMatrix values="0 0 0 0 0.992157 0 0 0 0 0.576471 0 0 0 0 0.443137 0 0 0 0.521569 0"/>
            <feBlend in2="BackgroundImageFix" result="effect1_dropShadow_1_841"/>
            <feBlend in="SourceGraphic" in2="effect1_dropShadow_1_841" result="shape"/>
        </filter>
        <filter id="6g5md1360d" x=".8" y="58.325" width="115.6" height="30.725" filterUnits="userSpaceOnUse" color-interpolation-filters="sRGB">
            <feFlood flood-opacity="0" result="BackgroundImageFix"/>
            <feColorMatrix in="SourceAlpha" values="0 0 0 0 0 0 0 0 0 0 0 0 0 0 0 0 0 0 127 0" result="hardAlpha"/>
            <feOffset/>
            <feGaussianBlur stdDeviation="1.5"/>
            <feComposite in2="hardAlpha" operator="out"/>
            <feColorMatrix values="0 0 0 0 0 0 0 0 0 0 0 0 0 0 0 0 0 0 0.160784 0"/>
            <feBlend in2="BackgroundImageFix" result="effect1_dropShadow_1_841"/>
            <feBlend in="SourceGraphic" in2="effect1_dropShadow_1_841" result="shape"/>
        </filter>
        <linearGradient id="su127jygzc" x1="48.378" y1="17.85" x2="48.378" y2="17.85" gradientUnits="userSpaceOnUse">
            <stop stop-color="#FFC92C"/>
            <stop offset="1" stop-color="#FD9371"/>
        </linearGradient>
    </defs>
</svg>
