<svg width="29" height="29" viewBox="0 0 29 29" fill="none" xmlns="http://www.w3.org/2000/svg">
<circle cx="14.5" cy="14.5" r="14.5" fill="url(#paint0_linear_1_1962)"/>
<path d="M21.1475 12.3207L21.1169 12.2911C20.9412 12.1005 20.7044 11.9774 20.4475 11.943L16.8903 11.4652L15.4904 8.19877C15.3121 7.79825 14.915 7.54002 14.4766 7.53955C14.332 7.53967 14.1889 7.5683 14.0553 7.6238C13.7906 7.73 13.5791 7.93722 13.4674 8.19969L12.0582 11.468L8.50477 11.9457C8.22035 11.9779 7.96078 12.123 7.78444 12.3485C7.60528 12.5773 7.52584 12.8687 7.56409 13.1568C7.60134 13.4106 7.72849 13.6425 7.9224 13.8104L10.6009 16.1344L10.051 19.7813C9.98323 20.2074 10.1835 20.6314 10.5556 20.8498C10.7306 20.9579 10.9322 21.0153 11.1379 21.0155C11.357 21.0165 11.5714 20.952 11.7536 20.8304L14.4757 19.0286L17.1977 20.8322C17.38 20.9531 17.5938 21.0175 17.8125 21.0174V21.0174C18.1737 21.0165 18.5125 20.8418 18.7226 20.548C18.8785 20.3263 18.9425 20.0529 18.9013 19.785L18.3458 16.1353L21.0243 13.8123C21.4697 13.4342 21.5248 12.7668 21.1475 12.3207V12.3207ZM17.1144 15.9936L17.6597 19.711L14.821 17.8278C14.721 17.7619 14.6038 17.7268 14.484 17.7268C14.3645 17.727 14.2477 17.762 14.1479 17.8278L11.2824 19.698L11.8379 15.9946C11.868 15.7978 11.7941 15.5995 11.6425 15.4705L8.91585 13.0799L12.561 12.5874C12.768 12.5599 12.9461 12.4271 13.0313 12.2365L14.4785 8.90335L15.9209 12.2365C16.0055 12.4289 16.1846 12.5631 16.3931 12.5901L20.0401 13.1012L17.3116 15.4659C17.1584 15.5954 17.0837 15.7954 17.1144 15.9936Z" fill="white"/>
<defs>
<linearGradient id="paint0_linear_1_1962" x1="7.25" y1="7.25" x2="7.25" y2="7.25" gradientUnits="userSpaceOnUse">
<stop stop-color="#6BAEFA"/>
<stop offset="1" stop-color="#144ACE"/>
</linearGradient>
</defs>
</svg>
