<svg width="29" height="29" viewBox="0 0 29 29" fill="none" xmlns="http://www.w3.org/2000/svg">
<circle cx="14.5" cy="14.5" r="14.5" fill="url(#paint0_linear_1_1961)"/>
<path d="M19.5114 10.3031C19.4209 10.1565 19.2608 10.0675 19.0885 10.0679H9.82016C9.64794 10.0679 9.48803 10.1569 9.3973 10.3032L6.90805 14.3044C6.78876 14.4965 6.81366 14.7448 6.96871 14.9093L14.0922 22.4649C14.2813 22.6647 14.5965 22.6739 14.7969 22.4854L14.8174 22.4649L21.9409 14.9093C22.096 14.7448 22.1209 14.4965 22.0016 14.3044L19.5114 10.3031ZM20.6846 14.0702H17.7772L15.9272 11.0638H18.8132L20.6846 14.0702ZM11.0961 15.0707L13.0198 19.8813L8.48171 15.0707H11.0961ZM16.7579 15.0707L14.4562 20.783L12.1685 15.0707H16.7579ZM12.2227 14.0748L14.0418 11.0684H14.8296L16.7299 14.0748H12.2227ZM17.8322 15.0707H20.4261L15.9001 19.8701L17.8322 15.0707ZM10.1002 11.0685H12.9554L11.182 14.0748H8.22503L10.1002 11.0685Z" fill="white"/>
<path d="M5.90025 14.24H4.0335C3.82731 14.24 3.66016 14.4071 3.66016 14.6133C3.66016 14.8195 3.82731 14.9867 4.0335 14.9867L5.90025 14.9867C6.10645 14.9867 6.2736 14.8195 6.2736 14.6133C6.2736 14.4071 6.10645 14.24 5.90025 14.24Z" fill="white"/>
<path d="M8.86822 9.51711C8.93853 9.61147 9.04922 9.66716 9.1669 9.66738C9.24789 9.66692 9.32665 9.64078 9.39184 9.59271C9.47132 9.53328 9.52388 9.44465 9.53789 9.3464C9.5519 9.24815 9.52621 9.14836 9.46651 9.06909L8.06645 7.20235C7.94273 7.03713 7.7085 7.00349 7.54329 7.12721C7.37808 7.25093 7.34444 7.48515 7.46815 7.65036L8.86822 9.51711Z" fill="white"/>
<path d="M19.7139 9.66737C19.8316 9.66715 19.9423 9.61146 20.0126 9.5171L21.4126 7.65036C21.5363 7.4854 21.5029 7.25139 21.338 7.12767C21.173 7.00395 20.939 7.03738 20.8153 7.20234L19.4152 9.06908C19.3298 9.18222 19.3158 9.33396 19.3792 9.46079C19.4425 9.58761 19.5721 9.66765 19.7139 9.66738L19.7139 9.66737Z" fill="white"/>
<path d="M14.5804 9.38739C14.7866 9.38739 14.9537 9.22023 14.9537 9.01404L14.9537 6.21392C14.9537 6.00773 14.7866 5.84058 14.5804 5.84058C14.3742 5.84058 14.207 6.00773 14.207 6.21392V9.01404C14.207 9.22023 14.3742 9.38739 14.5804 9.38739Z" fill="white"/>
<path d="M24.8944 14.24H23.0276C22.8215 14.24 22.6543 14.4071 22.6543 14.6133C22.6543 14.8195 22.8215 14.9867 23.0276 14.9867L24.8944 14.9867C25.1006 14.9867 25.2677 14.8195 25.2677 14.6133C25.2677 14.4071 25.1006 14.24 24.8944 14.24Z" fill="white"/>
<defs>
<linearGradient id="paint0_linear_1_1961" x1="7.25" y1="7.25" x2="7.25" y2="7.25" gradientUnits="userSpaceOnUse">
<stop stop-color="#FFCE50"/>
<stop offset="1" stop-color="#E9600D"/>
</linearGradient>
</defs>
</svg>
